# xmcd CD database file
#
# Track frame offsets:
#	150
#	12891
#	25682
#	36816
#	46245
#	59906
#	73560
#	85519
#	97547
#	110675
#	125775
#	136213
#	148720
#	162325
#	174172
#	186997
#	198906
#	210541
#	223617
#	236073
#
# Disc length: 3296 seconds
#
# Revision: 4
# Processed by: cddbd v1.5.2PL0 Copyright (c) Steve Scherf et al.
# Submitted via: CDex 1.70beta2
#
DISCID=170cde14
DTITLE=Oldies But Goldies - Oldies But Goldies - Country Boogie Favourites CD-7_10
DYEAR=2005
DGENRE=Oldies
TTITLE0=Red Foley - Freight Train Boogie  1947
TTITLE1=Johnny Bond - Mean Mama Boogie  1945
TTITLE2=Jack Guthrie - Oakie Boogie  1952
TTITLE3=Chuckmiller - Hopahoola Boogie  
TTITLE4=T. Texas Tyler - Guitar Boogie Woogie  1946
TTITLE5=Merle Travis - Merles Boogie Woogie  1947
TTITLE6=Jesse Rodgers - Hadacol Boogie  1947
TTITLE7=Spade Cooley - Three Way Boogie  1946
TTITLE8=Curley Williams - Georgia Boogie  1947
TTITLE9=Arthur Smith - Guitar Boogie  1948
TTITLE10=Tenn. Ernie Ford - Smokey Mountain Boogie  1949
TTITLE11=Bill Haley and The Saddlemen - Green Tree Boogie  1951
TTITLE12=Moon Mullican - Cherokee Boogie  1951
TTITLE13=Sheb Wooley - Hoot Owl Boogie  1951
TTITLE14=Zeb Turner - Huckleberry Boogie  1949
TTITLE15=Hawkshaw Hawkins - Doghouse Boogie  1948
TTITLE16=Al Dexter - New Brom Boogie  1947
TTITLE17=Tommy Durden - Hula Boogie  1950
TTITLE18=Delmore Brothers - Boogie Woogie Baby  1947
TTITLE19=Bill Haley And The Saddlemen - Sundown Boogie  1951
EXTD=YEAR: 2005
EXTT0=
EXTT1=
EXTT2=
EXTT3=
EXTT4=
EXTT5=
EXTT6=
EXTT7=
EXTT8=
EXTT9=
EXTT10=
EXTT11=
EXTT12=
EXTT13=
EXTT14=
EXTT15=
EXTT16=
EXTT17=
EXTT18=
EXTT19=
PLAYORDER=
